#!OML:ASF H:\BabyWalks\Project 1\Capture day 1\Session 1\baby.ASF
:FULLY-SPECIFIED
:DEGREES
808
root -31.7024 17.9566 -3.00828 -410.252 83.8894 -420.029
lowerback 18.1015 0.143866 -0.716795
upperback 3.35184 0.226402 -0.0431118
thorax -6.5338 0.198027 0.300168
lowerneck -0.779018 0.971553 5.94236
upperneck -19.5954 1.8625 -2.12086
head -5.72137 0.887547 -1.77798
rclavicle -9.54166e-015 -4.77083e-015
rhumerus -44.1147 10.2117 -83.9545
rradius 57.1957
rwrist 2.23316
rhand -17.8694 -8.89715
rfingers 7.12502
rthumb 8.39634 -38.7103
lclavicle -9.54166e-015 -4.77083e-015
lhumerus -30.4526 -25.9365 79.2686
lradius 70.6342
lwrist 2.48267
lhand 3.49787 2.16744
lfingers 7.12502
lthumb 28.9362 29.9421
rfemur -9.99544 9.72323 13.516
rtibia 16.6329
rfoot -10.145 -13.2718
rtoes -11.6351
lfemur -11.8415 2.40819 -14.8106
ltibia 26.8001
lfoot -24.0408 9.17013
ltoes -8.20168
809
root -31.644 17.9524 -3.0121 -409.644 83.825 -419.273
lowerback 17.8514 0.0674627 -0.833993
upperback 3.15122 0.0948191 -0.0176873
thorax -6.61304 0.132489 0.425149
lowerneck -0.676582 1.03783 5.90485
upperneck -19.6039 1.97005 -2.02807
head -5.73877 0.934415 -1.74804
rclavicle 6.75868e-015 2.38542e-015
rhumerus -44.3582 9.31638 -84.0191
rradius 56.7503
rwrist 2.14722
rhand -18.3906 -9.06356
rfingers 7.12502
rthumb 7.89331 -38.8962
lclavicle 6.75868e-015 2.38542e-015
lhumerus -29.9948 -25.2463 79.5187
lradius 71.0049
lwrist 2.643
lhand 3.43202 2.19399
lfingers 7.12502
lthumb 28.8733 29.9795
rfemur -9.91813 10.3236 13.6338
rtibia 16.2813
rfoot -10.644 -12.1588
rtoes -12.8249
lfemur -11.3804 2.25325 -14.8235
ltibia 26.7201
lfoot -24.1067 9.43002
ltoes -8.54316
810
root -31.5874 17.9484 -3.01491 -409.135 83.7757 -418.63
lowerback 17.6101 -0.0146058 -0.94629
upperback 2.9652 -0.04172 0.00892361
thorax -6.68019 0.065174 0.54922
lowerneck -0.592591 1.09594 5.86944
upperneck -19.6235 2.06359 -1.95172
head -5.75696 0.975578 -1.72312
rclavicle -1.90833e-014 -8.74653e-015
rhumerus -44.614 8.55183 -84.0977
rradius 56.2955
rwrist 2.09737
rhand -18.9135 -9.21071
rfingers 7.12502
rthumb 7.38867 -39.0617
lclavicle -1.90833e-014 -8.74653e-015
lhumerus -29.5091 -24.6595 79.7511
lradius 71.3814
lwrist 2.81123
lhand 3.40455 2.24305
lfingers 7.12502
lthumb 28.8471 30.033
rfemur -9.88336 10.9073 13.7513
rtibia 15.9656
rfoot -11.0771 -11.1278
rtoes -13.8695
lfemur -10.9437 2.09151 -14.8464
ltibia 26.6421
lfoot -24.1617 9.68861
ltoes -8.88548
811
root -31.5327 17.9446 -3.017 -408.695 83.7329 -418.071
lowerback 17.3749 -0.0981926 -1.0472
upperback 2.79267 -0.176754 0.0367176
thorax -6.73512 -0.00107177 0.66718
lowerneck -0.514819 1.14578 5.84646
upperneck -19.6634 2.14332 -1.89921
head -5.78068 1.01084 -1.70754
rclavicle -1.59028e-015 -1.59028e-015
rhumerus -44.8852 7.92075 -84.1896
rradius 55.853
rwrist 2.0377
rhand -19.372 -9.35961
rfingers 7.12502
rthumb 6.94602 -39.2256
lclavicle -1.59028e-015 -1.59028e-015
lhumerus -28.9952 -24.186 79.9634
lradius 71.7636
lwrist 2.97272
lhand 3.42388 2.31244
lfingers 7.12502
lthumb 28.8655 30.0992
rfemur -9.89498 11.4449 13.8727
rtibia 15.6985
rfoot -11.4375 -10.1602
rtoes -14.779
lfemur -10.536 1.93415 -14.8746
ltibia 26.5683
lfoot -24.2119 9.94344
ltoes -9.21033
812
root -31.4807 17.9406 -3.01899 -408.164 83.6868 -417.442
lowerback 17.1492 -0.176908 -1.13145
upperback 2.63048 -0.301579 0.0610103
thorax -6.78345 -0.0623181 0.769087
lowerneck -0.449756 1.18737 5.83383
upperneck -19.7221 2.20975 -1.86566
head -5.80838 1.04037 -1.69933
rclavicle -8.74653e-015 7.15625e-015
rhumerus -45.1687 7.42584 -84.2971
rradius 55.4423
rwrist 1.92712
rhand -19.6907 -9.56481
rfingers 7.12502
rthumb 6.63841 -39.4408
lclavicle -8.74653e-015 7.15625e-015
lhumerus -28.4481 -23.8322 80.15
lradius 72.1462
lwrist 3.10585
lhand 3.44412 2.36035
lfingers 7.12502
lthumb 28.8849 30.1439
rfemur -9.96797 11.8927 13.9918
rtibia 15.4892
rfoot -11.6982 -9.20891
rtoes -15.5565
lfemur -10.1674 1.78351 -14.9151
ltibia 26.5033
lfoot -24.2551 10.2159
ltoes -9.52209
813
root -31.4303 17.936 -3.01926 -407.918 83.6669 -417.099
lowerback 16.9401 -0.263617 -1.20772
upperback 2.48818 -0.43384 0.0880895
thorax -6.81851 -0.126801 0.870591
lowerneck -0.396652 1.2225 5.82978
upperneck -19.7992 2.26597 -1.84733
head -5.83996 1.06559 -1.69715
rclavicle -1.59028e-014 -1.59028e-014
rhumerus -45.4581 7.06125 -84.4193
rradius 55.0483
rwrist 1.79581
rhand -19.8669 -9.79804
rfingers 7.12502
rthumb 6.46833 -39.6793
lclavicle -1.59028e-014 -1.59028e-014
lhumerus -27.8658 -23.6002 80.3079
lradius 72.5274
lwrist 3.20333
lhand 3.46862 2.3996
lfingers 7.12502
lthumb 28.9083 30.1791
rfemur -10.0515 12.2564 14.1277
rtibia 15.3494
rfoot -11.8572 -8.32701
rtoes -16.1268
lfemur -9.81879 1.63569 -14.9539
ltibia 26.448
lfoot -24.3128 10.4607
ltoes -9.77914
814
root -31.3817 17.9309 -3.01816 -407.812 83.6656 -416.902
lowerback 16.7427 -0.35145 -1.27883
upperback 2.36296 -0.5655 0.115147
thorax -6.84095 -0.190745 0.968478
lowerneck -0.351519 1.25007 5.83997
upperneck -19.893 2.31011 -1.84835
head -5.87559 1.0854 -1.70316
rclavicle 3.97569e-015 -3.97569e-015
rhumerus -45.7581 6.82099 -84.5561
rradius 54.672
rwrist 1.6736
rhand -19.8921 -10.0357
rfingers 7.12502
rthumb 6.44399 -39.9176
lclavicle 3.97569e-015 -3.97569e-015
lhumerus -27.2566 -23.4873 80.4345
lradius 72.9162
lwrist 3.25812
lhand 3.50348 2.45754
lfingers 7.12502
lthumb 28.9416 30.2313
rfemur -10.1586 12.5214 14.2736
rtibia 15.2969
rfoot -11.9258 -7.50392
rtoes -16.3657
lfemur -9.49391 1.4969 -14.9967
ltibia 26.4005
lfoot -24.3854 10.6878
ltoes -9.97306
815
root -31.3347 17.9249 -3.01541 -407.944 83.6883 -416.938
lowerback 16.5617 -0.444024 -1.34413
upperback 2.25893 -0.701037 0.143267
thorax -6.84881 -0.256359 1.06454
lowerneck -0.322663 1.27162 5.86796
upperneck -19.9943 2.3436 -1.86901
head -5.91074 1.10034 -1.71789
rclavicle -2.50469e-014 -7.95139e-015
rhumerus -46.0627 6.69689 -84.7073
rradius 54.3088
rwrist 1.58071
rhand -19.7613 -10.2611
rfingers 7.12502
rthumb 6.57024 -40.1392
lclavicle -2.50469e-014 -7.95139e-015
lhumerus -26.6224 -23.4842 80.5243
lradius 73.3071
lwrist 3.26283
lhand 3.49537 2.48296
lfingers 7.12502
lthumb 28.9338 30.2581
rfemur -10.2723 12.6939 14.4373
rtibia 15.3556
rfoot -11.9273 -6.83111
rtoes -16.3285
lfemur -9.17937 1.36609 -15.0367
ltibia 26.3535
lfoot -24.4706 10.8846
ltoes -10.1207
816
root -31.2891 17.9181 -3.01078 -408.334 83.7443 -417.224
lowerback 16.405 -0.544345 -1.40964
upperback 2.17199 -0.845988 0.170144
thorax -6.85075 -0.326212 1.16106
lowerneck -0.308651 1.28824 5.90866
upperneck -20.0935 2.36862 -1.90029
head -5.94278 1.11118 -1.73756
rclavicle -1.31198e-014 -1.59028e-015
rhumerus -46.3776 6.67935 -84.8753
rradius 53.9564
rwrist 1.51847
rhand -19.4663 -10.458
rfingers 7.12502
rthumb 6.85506 -40.327
lclavicle -1.31198e-014 -1.59028e-015
lhumerus -25.9675 -23.5909 80.5735
lradius 73.6883
lwrist 3.23171
lhand 3.4386 2.49493
lfingers 7.12502
lthumb 28.8796 30.2793
rfemur -10.3809 12.7931 14.611
rtibia 15.5478
rfoot -11.8982 -6.37188
rtoes -16.0335
lfemur -8.86597 1.23028 -15.0779
ltibia 26.3016
lfoot -24.5685 11.0503
ltoes -10.2179
817
root -31.2447 17.9104 -3.00442 -408.941 83.8378 -417.714
lowerback 16.2708 -0.652537 -1.48264
upperback 2.10423 -1.00191 0.19387
thorax -6.84344 -0.40097 1.2605
lowerneck -0.314157 1.301 5.96025
upperneck -20.1809 2.38588 -1.9411
head -5.96782 1.11831 -1.76132
rclavicle -2.14687e-014 1.11319e-014
rhumerus -46.6927 6.75592 -85.0563
rradius 53.6118
rwrist 1.48867
rhand -18.9991 -10.6219
rfingers 7.12502
rthumb 7.30606 -40.4758
lclavicle -2.14687e-014 1.11319e-014
lhumerus -25.2896 -23.7947 80.5771
lradius 74.0524
lwrist 3.16986
lhand 3.34825 2.49885
lfingers 7.12502
lthumb 28.7933 30.298
rfemur -10.4768 12.8273 14.7839
rtibia 15.8911
rfoot -11.8875 -6.12832
rtoes -15.5699
lfemur -8.54359 1.08167 -15.1294
ltibia 26.2382
lfoot -24.6755 11.1898
ltoes -10.2676
818
root -31.2015 17.9019 -2.99692 -409.649 83.957 -418.299
lowerback 16.1602 -0.764905 -1.55946
upperback 2.04753 -1.16386 0.212985
thorax -6.83633 -0.478369 1.35827
lowerneck -0.329324 1.3125 6.0205
upperneck -20.2556 2.39942 -1.98959
head -5.98711 1.12359 -1.7885
rclavicle -1.98785e-015 -3.18055e-015
rhumerus -47.017 6.91573 -85.2505
rradius 53.2803
rwrist 1.48315
rhand -18.3646 -10.75
rfingers 7.12502
rthumb 7.91844 -40.5817
lclavicle -1.98785e-015 -3.18055e-015
lhumerus -24.6078 -24.0774 80.5377
lradius 74.402
lwrist 3.08523
lhand 3.22147 2.47392
lfingers 7.12502
lthumb 28.6722 30.2936
rfemur -10.5693 12.8082 14.9467
rtibia 16.3935
rfoot -11.9273 -6.08467
rtoes -15.0614
lfemur -8.21037 0.91937 -15.1936
ltibia 26.1565
lfoot -24.7898 11.3158
ltoes -10.2468
819
root -31.1595 17.8925 -2.98842 -410.47 84.1076 -418.986
lowerback 16.0768 -0.882611 -1.64328
upperback 2.00084 -1.3341 0.226457
thorax -6.83248 -0.559415 1.45576
lowerneck -0.358199 1.323 6.08741
upperneck -20.3067 2.40895 -2.04354
head -5.99655 1.12688 -1.81777
rclavicle 8.34896e-015 -9.54166e-015
rhumerus -47.3451 7.13976 -85.4536
rradius 52.954
rwrist 1.49593
rhand -17.5837 -10.8479
rfingers 7.12502
rthumb 8.6721 -40.6498
lclavicle 8.34896e-015 -9.54166e-015
lhumerus -23.912 -24.439 80.4539
lradius 74.7182
lwrist 3.00073
lhand 3.05675 2.42948
lfingers 7.12502
lthumb 28.5148 30.2756
rfemur -10.6449 12.75 15.0888
rtibia 17.0435
rfoot -12.0702 -6.24005
rtoes -14.7204
lfemur -7.86241 0.750095 -15.2777
ltibia 26.0534
lfoot -24.8978 11.4306
ltoes -10.2416
820
root -31.1189 17.8821 -2.9796 -411.188 84.2827 -419.567
lowerback 16.0171 -0.998203 -1.73715
upperback 1.95908 -1.5039 0.230604
thorax -6.83575 -0.639835 1.54905
lowerneck -0.404625 1.33286 6.15933
upperneck -20.3335 2.41469 -2.10301
head -5.99526 1.12844 -1.84881
rclavicle 1.07344e-014 7.95139e-015
rhumerus -47.681 7.4092 -85.6595
rradius 52.6427
rwrist 1.51616
rhand -16.6656 -10.9123
rfingers 7.12502
rthumb 9.55801 -40.6755
lclavicle 1.07344e-014 7.95139e-015
lhumerus -23.214 -24.8623 80.3289
lradius 75.0161
lwrist 2.9251
lhand 2.869 2.37827
lfingers 7.12502
lthumb 28.3354 30.2544
rfemur -10.7161 12.6571 15.189
rtibia 17.8142
rfoot -12.3131 -6.50843
rtoes -14.6388
lfemur -7.5072 0.580881 -15.3964
ltibia 25.9301
lfoot -24.9996 11.5521
ltoes -10.2386
821
root -31.0798 17.8709 -2.97086 -411.811 84.4666 -420.051
lowerback 15.9778 -1.10994 -1.82793
upperback 1.92087 -1.66842 0.229928
thorax -6.84621 -0.717592 1.63454
lowerneck -0.458969 1.34278 6.24168
upperneck -20.3365 2.41694 -2.17527
head -5.98484 1.1284 -1.88498
rclavicle -8.34896e-015 3.18055e-015
rhumerus -48.0252 7.70278 -85.8594
rradius 52.3483
rwrist 1.54078
rhand -15.631 -10.9535
rfingers 7.12502
rthumb 10.5562 -40.6684
lclavicle -8.34896e-015 3.18055e-015
lhumerus -22.5136 -25.3407 80.1652
lradius 75.296
lwrist 2.87897
lhand 2.68216 2.33796
lfingers 7.12502
lthumb 28.1568 30.2436
rfemur -10.7842 12.5444 15.2547
rtibia 18.6704
rfoot -12.6497 -6.82162
rtoes -14.8394
lfemur -7.14396 0.42041 -15.5352
ltibia 25.7867
lfoot -25.1013 11.6776
ltoes -10.2189
